<svg width="205" height="205" viewBox="0 0 205 205" fill="none" xmlns="http://www.w3.org/2000/svg">
<g filter="url(#filter0_d_0_765)">
<rect x="3" y="2" width="199" height="199" rx="52" fill="white"/>
</g>
<path d="M97.8484 42.1715C101.694 41.3173 105.493 43.7373 106.347 47.5809L120.591 111.64C121.066 113.728 120.544 115.958 119.214 117.619C117.885 119.279 115.843 120.276 113.659 120.276H88.7322C84.7913 120.276 81.6102 117.097 81.6102 113.158C81.6102 109.22 84.7913 106.04 88.7322 106.04H104.781L92.4831 50.6652C91.6285 46.8217 94.05 43.0256 97.8484 42.1715ZM60.2441 66.8934C60.2441 62.955 57.0629 59.7758 53.122 59.7758C49.1812 59.7758 46 62.955 46 66.8934V88.2464C46 92.1848 49.1812 95.364 53.122 95.364C57.0629 95.364 60.2441 92.1848 60.2441 88.2464V66.8934ZM159.953 66.8934C159.953 62.955 156.771 59.7758 152.83 59.7758C148.89 59.7758 145.708 62.955 145.708 66.8934V88.2464C145.708 92.1848 148.89 95.364 152.83 95.364C156.771 95.364 159.953 92.1848 159.953 88.2464V66.8934ZM159.905 119.564C159.525 115.673 156.012 112.779 152.118 113.206C148.225 113.585 145.376 117.049 145.708 120.94V121.035C145.708 121.177 145.708 121.415 145.708 121.747C145.708 122.411 145.661 123.502 145.471 124.784C145.091 127.393 144.142 130.81 141.91 134.179C137.779 140.537 127.951 148.746 102.929 148.746C98.9879 148.746 95.8067 151.926 95.8067 155.864C95.8067 159.802 98.9879 162.982 102.929 162.982C131.322 162.982 146.421 153.397 153.875 141.961C157.436 136.457 158.955 131 159.573 126.919C159.858 124.879 159.953 123.123 159.953 121.889C159.953 121.272 159.953 120.75 159.905 120.371C159.905 120.181 159.905 119.991 159.858 119.896V119.754V119.706L159.905 119.564Z" fill="black"/>
<defs>
<filter id="filter0_d_0_765" x="0" y="0" width="205" height="205" filterUnits="userSpaceOnUse" color-interpolation-filters="sRGB">
<feFlood flood-opacity="0" result="BackgroundImageFix"/>
<feColorMatrix in="SourceAlpha" type="matrix" values="0 0 0 0 0 0 0 0 0 0 0 0 0 0 0 0 0 0 127 0" result="hardAlpha"/>
<feOffset dy="1"/>
<feGaussianBlur stdDeviation="1.5"/>
<feComposite in2="hardAlpha" operator="out"/>
<feColorMatrix type="matrix" values="0 0 0 0 0 0 0 0 0 0 0 0 0 0 0 0 0 0 0.25 0"/>
<feBlend mode="normal" in2="BackgroundImageFix" result="effect1_dropShadow_0_765"/>
<feBlend mode="normal" in="SourceGraphic" in2="effect1_dropShadow_0_765" result="shape"/>
</filter>
</defs>
</svg>
